<svg width="44" height="43" viewBox="0 0 44 43" fill="none" xmlns="http://www.w3.org/2000/svg">
<rect x="0.560425" width="43" height="43" rx="21.5" fill="#00D8FF"/>
<path d="M31.4042 16.9271C31.0956 16.8204 30.7843 16.7216 30.4708 16.6307C30.5234 16.4138 30.5719 16.1995 30.615 15.989C31.3216 12.5324 30.8597 9.74766 29.2818 8.83079C27.7689 7.95182 25.2947 8.86835 22.796 11.0597C22.5497 11.2761 22.3089 11.4987 22.0738 11.7273C21.9164 11.5753 21.7562 11.4262 21.5934 11.2801C18.9745 8.93707 16.3496 7.94954 14.7734 8.86903C13.2619 9.75074 12.8143 12.3686 13.4505 15.6445C13.5138 15.969 13.5852 16.2917 13.6648 16.6125C13.2932 16.7189 12.9347 16.8321 12.5916 16.9527C9.52121 18.0314 7.56042 19.7219 7.56042 21.4754C7.56042 23.2864 9.66542 25.1029 12.8633 26.2044C13.1226 26.2933 13.384 26.3757 13.6474 26.4515C13.5618 26.797 13.4859 27.1448 13.4197 27.4946C12.8132 30.7137 13.2868 33.2697 14.7942 34.1458C16.3512 35.0506 18.9643 34.1207 21.5087 31.8793C21.7151 31.6971 21.9168 31.5097 22.1139 31.3173C22.3685 31.5649 22.6299 31.8052 22.8978 32.0381C25.3626 34.1752 27.7968 35.0382 29.3027 34.1597C30.8582 33.2523 31.3638 30.5065 30.7074 27.1659C30.6557 26.9041 30.5977 26.6437 30.5335 26.3848C30.717 26.33 30.8972 26.2736 31.0727 26.215C34.3973 25.1051 36.5604 23.3106 36.5604 21.4754C36.5604 19.7155 34.5363 18.0136 31.4042 16.9271ZM30.6832 25.0301C30.5246 25.0829 30.3619 25.134 30.1961 25.1836C29.829 24.0128 29.3338 22.7678 28.7276 21.4814C29.306 20.2258 29.7822 18.9967 30.139 17.8335C30.4356 17.92 30.7235 18.0112 31.001 18.1075C33.6847 19.0385 35.3216 20.4148 35.3216 21.4754C35.3216 22.605 33.5537 24.0715 30.6832 25.0301ZM29.4921 27.4083C29.7824 28.8854 29.8237 30.221 29.6315 31.2652C29.4588 32.2034 29.1115 32.8288 28.6819 33.0794C27.7681 33.6125 25.8137 32.9196 23.7058 31.0918C23.4567 30.8753 23.2135 30.6518 22.9766 30.4217C23.7939 29.5212 24.6105 28.4743 25.4075 27.3115C26.8095 27.1862 28.134 26.9812 29.3351 26.7014C29.3943 26.9419 29.4468 27.1777 29.4921 27.4083ZM17.4472 32.9873C16.5543 33.3049 15.8431 33.3141 15.4132 33.0643C14.4984 32.5327 14.1182 30.4804 14.6369 27.7275C14.6985 27.4022 14.7691 27.0787 14.8486 26.7573C16.0365 27.0221 17.3513 27.2125 18.7566 27.3274C19.5591 28.4651 20.3993 29.5109 21.246 30.4266C21.0661 30.6021 20.8819 30.773 20.6936 30.9394C19.5684 31.9304 18.4409 32.6336 17.4472 32.9873ZM13.2641 25.0231C11.85 24.536 10.6822 23.9031 9.88178 23.2123C9.16245 22.5917 8.79938 21.9754 8.79938 21.4754C8.79938 20.4113 10.3737 19.054 12.9994 18.1315C13.3181 18.0197 13.6516 17.9141 13.9976 17.815C14.3606 19.0045 14.8366 20.2481 15.411 21.5058C14.8291 22.782 14.3463 24.0455 13.9798 25.249C13.7395 25.1796 13.5008 25.1043 13.2641 25.0231ZM14.6663 15.4047C14.1213 12.598 14.4833 10.4809 15.3942 9.94948C16.3643 9.38352 18.5096 10.1905 20.7708 12.2137C20.9183 12.3459 21.0633 12.4808 21.2059 12.6183C20.3634 13.5301 19.5309 14.5681 18.7355 15.6991C17.3716 15.8265 16.066 16.031 14.8657 16.3051C14.7918 16.0067 14.7253 15.7065 14.6663 15.4048V15.4047ZM27.1756 18.5174C26.8921 18.0239 26.5981 17.5366 26.2937 17.0559C27.219 17.1738 28.1056 17.3303 28.9381 17.5216C28.6882 18.3289 28.3766 19.1728 28.01 20.0381C27.7419 19.5256 27.4638 19.0186 27.1756 18.5174ZM22.0744 13.5106C22.6457 14.1344 23.218 14.8308 23.7809 15.5865C22.6391 15.5322 21.4953 15.532 20.3534 15.5858C20.9169 14.8371 21.494 14.1416 22.0744 13.5106ZM16.9403 18.5259C16.6558 19.0232 16.3828 19.527 16.1217 20.0371C15.761 19.1749 15.4523 18.3271 15.2002 17.5084C16.0276 17.3219 16.91 17.1694 17.8294 17.0536C17.5216 17.5373 17.2252 18.0281 16.9403 18.5258V18.5259ZM17.8558 25.986C16.9059 25.8791 16.0103 25.7345 15.1831 25.553C15.4391 24.7197 15.7546 23.8539 16.1231 22.9732C16.3854 23.4836 16.6595 23.9878 16.9452 24.4852C17.2391 24.9966 17.5433 25.4975 17.8558 25.986ZM22.1086 29.5281C21.5213 28.8898 20.9357 28.1835 20.3637 27.424C20.919 27.4459 21.4851 27.4571 22.0604 27.4571C22.6515 27.4571 23.2358 27.4437 23.811 27.4179C23.2463 28.1912 22.6761 28.8985 22.1086 29.5281ZM28.0216 22.9282C28.4093 23.8186 28.736 24.6799 28.9954 25.4989C28.1546 25.6923 27.2468 25.848 26.2902 25.9636C26.5967 25.474 26.8936 24.9782 27.1805 24.4767C27.4722 23.9669 27.7527 23.4506 28.0216 22.9282ZM26.1074 23.8529C25.6681 24.6219 25.2041 25.3763 24.7162 26.1149C23.8323 26.1779 22.9465 26.2093 22.0604 26.2088C21.1579 26.2088 20.2801 26.1805 19.4348 26.1252C18.9341 25.3884 18.4613 24.6327 18.0173 23.8598H18.0174C17.5755 23.091 17.1628 22.3056 16.78 21.5052C17.1618 20.7046 17.5733 19.9188 18.0137 19.1494L18.0136 19.1495C18.4538 18.38 18.9228 17.6275 19.4197 16.8938C20.2821 16.828 21.1665 16.7938 22.0603 16.7938H22.0604C22.9583 16.7938 23.8438 16.8284 24.706 16.8946C25.1979 17.6272 25.6639 18.3771 26.1033 19.1428C26.5452 19.9105 26.9621 20.6925 27.3535 21.4875C26.9661 22.2906 26.5505 23.0796 26.1074 23.8529ZM28.663 9.91227C29.6341 10.4766 30.0117 12.7525 29.4016 15.737C29.3626 15.9274 29.3189 16.1213 29.2713 16.318C28.0681 16.0381 26.7616 15.83 25.3937 15.7007C24.5969 14.5572 23.7712 13.5176 22.9423 12.6177C23.1596 12.4067 23.382 12.2011 23.6093 12.0012C25.7503 10.1238 27.7513 9.38249 28.663 9.91227ZM22.0604 18.8659C23.4906 18.8659 24.65 20.0342 24.65 21.4754C24.65 22.9166 23.4906 24.0849 22.0604 24.0849C20.6302 24.0849 19.4708 22.9166 19.4708 21.4754C19.4708 20.0342 20.6302 18.8659 22.0604 18.8659Z" fill="white"/>
</svg>
