<svg width="55" height="55" viewBox="0 0 55 55" fill="none" xmlns="http://www.w3.org/2000/svg">
<rect width="55" height="55" rx="27.5" fill="#161614"/>
<path d="M27.5001 11.9202C18.679 11.9202 11.5259 19.072 11.5259 27.8944C11.5259 34.9523 16.103 40.9401 22.4501 43.0523C23.2484 43.2002 23.5415 42.7058 23.5415 42.2839C23.5415 41.903 23.5267 40.6446 23.5198 39.3098C19.0758 40.2761 18.138 37.4251 18.138 37.4251C17.4114 35.5787 16.3644 35.0877 16.3644 35.0877C14.915 34.0963 16.4736 34.1166 16.4736 34.1166C18.0777 34.2293 18.9223 35.7628 18.9223 35.7628C20.3471 38.2049 22.6593 37.4989 23.5709 37.0907C23.7142 36.0583 24.1282 35.3536 24.5851 34.9546C21.037 34.5507 17.3071 33.181 17.3071 27.0601C17.3071 25.3161 17.9312 23.8911 18.953 22.7724C18.7872 22.3701 18.2404 20.7454 19.1078 18.545C19.1078 18.545 20.4492 18.1157 23.5018 20.1824C24.776 19.8285 26.1426 19.651 27.5001 19.6449C28.8577 19.651 30.2253 19.8285 31.5019 20.1824C34.5508 18.1157 35.8904 18.545 35.8904 18.545C36.7599 20.7454 36.2128 22.3701 36.047 22.7724C37.0712 23.8911 37.691 25.3161 37.691 27.0601C37.691 33.1955 33.954 34.5465 30.397 34.9419C30.9699 35.4377 31.4805 36.4098 31.4805 37.9001C31.4805 40.0375 31.4619 41.7577 31.4619 42.2839C31.4619 42.709 31.7495 43.2071 32.5592 43.0502C38.9028 40.9356 43.4741 34.9499 43.4741 27.8944C43.4741 19.072 36.3221 11.9202 27.5001 11.9202ZM17.5088 34.6758C17.4736 34.7552 17.3487 34.779 17.235 34.7245C17.1191 34.6724 17.0541 34.5642 17.0916 34.4846C17.126 34.4028 17.2511 34.3801 17.3667 34.4348C17.4829 34.487 17.549 34.5962 17.5088 34.6758ZM18.2945 35.3769C18.2183 35.4476 18.0694 35.4148 17.9684 35.3031C17.8639 35.1918 17.8443 35.0429 17.9216 34.9712C18.0001 34.9005 18.1445 34.9336 18.2493 35.045C18.3538 35.1577 18.3742 35.3055 18.2945 35.3769ZM18.8336 36.274C18.7357 36.342 18.5757 36.2782 18.4767 36.1362C18.3789 35.9941 18.3789 35.8238 18.4789 35.7555C18.5781 35.6873 18.7357 35.7487 18.836 35.8896C18.9336 36.0341 18.9336 36.2044 18.8336 36.274ZM19.7453 37.3129C19.6577 37.4095 19.4712 37.3836 19.3347 37.2518C19.195 37.123 19.1562 36.9402 19.244 36.8437C19.3326 36.7468 19.5201 36.7741 19.6577 36.9048C19.7963 37.0333 19.8386 37.2174 19.7453 37.3129ZM20.9235 37.6636C20.8849 37.7888 20.7052 37.8456 20.5243 37.7925C20.3436 37.7377 20.2254 37.5912 20.2619 37.4647C20.2995 37.3388 20.4799 37.2796 20.6621 37.3364C20.8425 37.3909 20.961 37.5364 20.9235 37.6636ZM22.2644 37.8124C22.2689 37.9442 22.1154 38.0534 21.9255 38.0558C21.7345 38.06 21.58 37.9534 21.5779 37.8238C21.5779 37.6907 21.7279 37.5825 21.9189 37.5794C22.1088 37.5757 22.2644 37.6815 22.2644 37.8124ZM23.5816 37.7619C23.6044 37.8905 23.4724 38.0225 23.2838 38.0577C23.0983 38.0915 22.9267 38.0122 22.9031 37.8847C22.8801 37.7529 23.0145 37.6209 23.1996 37.5868C23.3885 37.554 23.5576 37.6312 23.5816 37.7619Z" fill="white"/>
</svg>
