<svg width="73" height="72" viewBox="0 0 73 72" fill="none" xmlns="http://www.w3.org/2000/svg">
<rect x="0.504372" width="72" height="72" rx="36" fill="#007ACC"/>
<rect x="19.5044" y="19" width="34" height="34" rx="3.4" fill="white"/>
<path d="M31.412 38.8054L31.4044 39.7878H32.9656H34.5269V44.2241V48.6603H35.6312H36.7355V44.2241V39.7878H38.2967H39.858V38.8244C39.858 38.2913 39.8466 37.8458 39.8313 37.8343C39.8199 37.8191 37.9197 37.8115 35.6159 37.8153L31.4234 37.8267L31.412 38.8054Z" fill="#007ACC"/>
<path d="M45.4645 37.7988C46.0737 37.9511 46.5383 38.2215 46.9648 38.6632C47.1857 38.8993 47.5131 39.3296 47.5398 39.4324C47.5474 39.4629 46.504 40.1635 45.8719 40.5558C45.8491 40.571 45.7577 40.472 45.6549 40.3197C45.3464 39.8703 45.0228 39.6761 44.5277 39.6419C43.8004 39.5924 43.332 39.9731 43.3358 40.6091C43.3358 40.7957 43.3625 40.9061 43.4386 41.0584C43.5986 41.3897 43.8956 41.5877 44.8285 41.9914C46.5459 42.7301 47.2809 43.2175 47.7378 43.9106C48.2481 44.6836 48.3623 45.9173 48.0158 46.8351C47.635 47.8327 46.6906 48.5105 45.3617 48.7352C44.9504 48.8076 43.9756 48.7961 43.5338 48.7162C42.5704 48.5448 41.6565 48.0688 41.093 47.4443C40.8721 47.2006 40.4418 46.5647 40.4685 46.519C40.4799 46.5038 40.5789 46.4428 40.6893 46.3781C40.7959 46.3172 41.1996 46.0849 41.5804 45.864L42.2696 45.4642L42.4143 45.6774C42.6161 45.9859 43.0579 46.4086 43.3244 46.5495C44.0898 46.9531 45.1408 46.896 45.6587 46.4314C45.8795 46.2296 45.9709 46.0202 45.9709 45.7117C45.9709 45.4337 45.9367 45.3119 45.792 45.1024C45.6054 44.8359 45.2246 44.6112 44.1431 44.1428C42.9055 43.6097 42.3724 43.2784 41.885 42.7529C41.6032 42.4483 41.3367 41.9609 41.2262 41.5534C41.1348 41.2145 41.112 40.3654 41.1843 40.0226C41.4395 38.827 42.342 37.993 43.6443 37.7455C44.067 37.6655 45.0494 37.696 45.4645 37.7988Z" fill="#007ACC"/>
</svg>
